{
	"asset":{
		"generator":"Khronos glTF Blender I/O v4.4.56",
		"version":"2.0"
	},
	"scene":0,
	"scenes":[
		{
			"name":"Scene",
			"nodes":[
				0,
				10,
				11
			]
		}
	],
	"nodes":[
		{
			"mesh":0,
			"name":"Pole"
		},
		{
			"name":"FlagBone_09",
			"translation":[
				0,
				0.03527647256851196,
				0
			]
		},
		{
			"children":[
				1
			],
			"name":"FlagBone_08",
			"translation":[
				0,
				0.03527650237083435,
				0
			]
		},
		{
			"children":[
				2
			],
			"name":"FlagBone_07",
			"translation":[
				0,
				0.03527648746967316,
				0
			]
		},
		{
			"children":[
				3
			],
			"name":"FlagBone_06",
			"translation":[
				0,
				0.03527650237083435,
				0
			]
		},
		{
			"children":[
				4
			],
			"name":"FlagBone_05",
			"translation":[
				0,
				0.03527648746967316,
				0
			]
		},
		{
			"children":[
				5
			],
			"name":"FlagBone_04",
			"translation":[
				0,
				0.035276494920253754,
				0
			]
		},
		{
			"children":[
				6
			],
			"name":"FlagBone_03",
			"translation":[
				0,
				0.035276494920253754,
				0
			]
		},
		{
			"children":[
				7
			],
			"name":"FlagBone_02",
			"translation":[
				0,
				0.035276491194963455,
				0
			]
		},
		{
			"children":[
				8
			],
			"name":"FlagBone_01",
			"rotation":[
				-0.5,
				0.5,
				0.5,
				0.5
			],
			"translation":[
				-0.0390319786965847,
				0.8749474287033081,
				-6.611482916696332e-08
			]
		},
		{
			"mesh":1,
			"name":"Flag",
			"skin":0
		},
		{
			"children":[
				9
			],
			"name":"Flag_Armature"
		}
	],
	"animations":[
		{
			"channels":[
				{
					"sampler":0,
					"target":{
						"node":9,
						"path":"translation"
					}
				},
				{
					"sampler":1,
					"target":{
						"node":9,
						"path":"rotation"
					}
				},
				{
					"sampler":2,
					"target":{
						"node":9,
						"path":"scale"
					}
				},
				{
					"sampler":3,
					"target":{
						"node":8,
						"path":"translation"
					}
				},
				{
					"sampler":4,
					"target":{
						"node":8,
						"path":"rotation"
					}
				},
				{
					"sampler":5,
					"target":{
						"node":8,
						"path":"scale"
					}
				},
				{
					"sampler":6,
					"target":{
						"node":7,
						"path":"translation"
					}
				},
				{
					"sampler":7,
					"target":{
						"node":7,
						"path":"rotation"
					}
				},
				{
					"sampler":8,
					"target":{
						"node":7,
						"path":"scale"
					}
				},
				{
					"sampler":9,
					"target":{
						"node":6,
						"path":"translation"
					}
				},
				{
					"sampler":10,
					"target":{
						"node":6,
						"path":"rotation"
					}
				},
				{
					"sampler":11,
					"target":{
						"node":6,
						"path":"scale"
					}
				},
				{
					"sampler":12,
					"target":{
						"node":5,
						"path":"translation"
					}
				},
				{
					"sampler":13,
					"target":{
						"node":5,
						"path":"rotation"
					}
				},
				{
					"sampler":14,
					"target":{
						"node":5,
						"path":"scale"
					}
				},
				{
					"sampler":15,
					"target":{
						"node":4,
						"path":"translation"
					}
				},
				{
					"sampler":16,
					"target":{
						"node":4,
						"path":"rotation"
					}
				},
				{
					"sampler":17,
					"target":{
						"node":4,
						"path":"scale"
					}
				},
				{
					"sampler":18,
					"target":{
						"node":3,
						"path":"translation"
					}
				},
				{
					"sampler":19,
					"target":{
						"node":3,
						"path":"rotation"
					}
				},
				{
					"sampler":20,
					"target":{
						"node":3,
						"path":"scale"
					}
				},
				{
					"sampler":21,
					"target":{
						"node":2,
						"path":"translation"
					}
				},
				{
					"sampler":22,
					"target":{
						"node":2,
						"path":"rotation"
					}
				},
				{
					"sampler":23,
					"target":{
						"node":2,
						"path":"scale"
					}
				},
				{
					"sampler":24,
					"target":{
						"node":1,
						"path":"translation"
					}
				},
				{
					"sampler":25,
					"target":{
						"node":1,
						"path":"rotation"
					}
				},
				{
					"sampler":26,
					"target":{
						"node":1,
						"path":"scale"
					}
				}
			],
			"name":"Animation",
			"samplers":[
				{
					"input":13,
					"interpolation":"LINEAR",
					"output":14
				},
				{
					"input":13,
					"interpolation":"LINEAR",
					"output":15
				},
				{
					"input":13,
					"interpolation":"LINEAR",
					"output":16
				},
				{
					"input":13,
					"interpolation":"LINEAR",
					"output":17
				},
				{
					"input":13,
					"interpolation":"LINEAR",
					"output":18
				},
				{
					"input":13,
					"interpolation":"LINEAR",
					"output":19
				},
				{
					"input":13,
					"interpolation":"LINEAR",
					"output":20
				},
				{
					"input":13,
					"interpolation":"LINEAR",
					"output":21
				},
				{
					"input":13,
					"interpolation":"LINEAR",
					"output":22
				},
				{
					"input":13,
					"interpolation":"LINEAR",
					"output":23
				},
				{
					"input":13,
					"interpolation":"LINEAR",
					"output":24
				},
				{
					"input":13,
					"interpolation":"LINEAR",
					"output":25
				},
				{
					"input":13,
					"interpolation":"LINEAR",
					"output":26
				},
				{
					"input":13,
					"interpolation":"LINEAR",
					"output":27
				},
				{
					"input":13,
					"interpolation":"LINEAR",
					"output":28
				},
				{
					"input":13,
					"interpolation":"LINEAR",
					"output":29
				},
				{
					"input":13,
					"interpolation":"LINEAR",
					"output":30
				},
				{
					"input":13,
					"interpolation":"LINEAR",
					"output":31
				},
				{
					"input":13,
					"interpolation":"LINEAR",
					"output":32
				},
				{
					"input":13,
					"interpolation":"LINEAR",
					"output":33
				},
				{
					"input":13,
					"interpolation":"LINEAR",
					"output":34
				},
				{
					"input":13,
					"interpolation":"LINEAR",
					"output":35
				},
				{
					"input":13,
					"interpolation":"LINEAR",
					"output":36
				},
				{
					"input":13,
					"interpolation":"LINEAR",
					"output":37
				},
				{
					"input":13,
					"interpolation":"LINEAR",
					"output":38
				},
				{
					"input":13,
					"interpolation":"LINEAR",
					"output":39
				},
				{
					"input":13,
					"interpolation":"LINEAR",
					"output":40
				}
			]
		}
	],
	"materials":[
		{
			"doubleSided":true,
			"name":"Pole_Dark_Metal",
			"pbrMetallicRoughness":{
				"baseColorTexture":{
					"index":0
				},
				"metallicFactor":0.7200000286102295,
				"roughnessFactor":0.27000001072883606
			}
		},
		{
			"doubleSided":true,
			"name":"Flag_Red_Cloth",
			"pbrMetallicRoughness":{
				"baseColorTexture":{
					"index":1
				},
				"metallicFactor":0,
				"roughnessFactor":0.5
			}
		}
	],
	"meshes":[
		{
			"name":"Pole_Mesh",
			"primitives":[
				{
					"attributes":{
						"POSITION":0,
						"NORMAL":1,
						"TEXCOORD_0":2,
						"COLOR_0":3,
						"COLOR_1":4
					},
					"indices":5,
					"material":0
				}
			]
		},
		{
			"name":"Flag_Mesh",
			"primitives":[
				{
					"attributes":{
						"POSITION":6,
						"NORMAL":7,
						"TEXCOORD_0":8,
						"JOINTS_0":9,
						"WEIGHTS_0":10
					},
					"indices":11,
					"material":1
				}
			]
		}
	],
	"textures":[
		{
			"sampler":0,
			"source":0
		},
		{
			"sampler":0,
			"source":0
		}
	],
	"images":[
		{
			"mimeType":"image/png",
			"name":"flag-colormap",
			"uri":"flag-colormap.png"
		}
	],
	"skins":[
		{
			"inverseBindMatrices":12,
			"joints":[
				9,
				8,
				7,
				6,
				5,
				4,
				3,
				2,
				1
			],
			"name":"Flag_Armature"
		}
	],
	"accessors":[
		{
			"bufferView":0,
			"componentType":5126,
			"count":36,
			"max":[
				0.019999999552965164,
				1.0248949527740479,
				0.019999999552965164
			],
			"min":[
				-0.019999999552965164,
				-1.5099579364630245e-09,
				-0.020000077784061432
			],
			"type":"VEC3"
		},
		{
			"bufferView":1,
			"componentType":5126,
			"count":36,
			"type":"VEC3"
		},
		{
			"bufferView":2,
			"componentType":5126,
			"count":36,
			"type":"VEC2"
		},
		{
			"bufferView":3,
			"componentType":5121,
			"count":36,
			"normalized":true,
			"type":"VEC4"
		},
		{
			"bufferView":4,
			"componentType":5123,
			"count":36,
			"normalized":true,
			"type":"VEC4"
		},
		{
			"bufferView":5,
			"componentType":5123,
			"count":36,
			"type":"SCALAR"
		},
		{
			"bufferView":6,
			"componentType":5126,
			"count":1334,
			"max":[
				-0.0390319786965847,
				0.999894917011261,
				0.012499943375587463
			],
			"min":[
				-0.356520414352417,
				0.7499998807907104,
				-0.012500075623393059
			],
			"type":"VEC3"
		},
		{
			"bufferView":7,
			"componentType":5126,
			"count":1334,
			"type":"VEC3"
		},
		{
			"bufferView":8,
			"componentType":5126,
			"count":1334,
			"type":"VEC2"
		},
		{
			"bufferView":9,
			"componentType":5121,
			"count":1334,
			"type":"VEC4"
		},
		{
			"bufferView":10,
			"componentType":5126,
			"count":1334,
			"type":"VEC4"
		},
		{
			"bufferView":11,
			"componentType":5123,
			"count":7992,
			"type":"SCALAR"
		},
		{
			"bufferView":12,
			"componentType":5126,
			"count":9,
			"type":"MAT4"
		},
		{
			"bufferView":13,
			"componentType":5126,
			"count":49,
			"max":[
				2.0416666666666665
			],
			"min":[
				0.041666666666666664
			],
			"type":"SCALAR"
		},
		{
			"bufferView":14,
			"componentType":5126,
			"count":49,
			"type":"VEC3"
		},
		{
			"bufferView":15,
			"componentType":5126,
			"count":49,
			"type":"VEC4"
		},
		{
			"bufferView":16,
			"componentType":5126,
			"count":49,
			"type":"VEC3"
		},
		{
			"bufferView":17,
			"componentType":5126,
			"count":49,
			"type":"VEC3"
		},
		{
			"bufferView":18,
			"componentType":5126,
			"count":49,
			"type":"VEC4"
		},
		{
			"bufferView":19,
			"componentType":5126,
			"count":49,
			"type":"VEC3"
		},
		{
			"bufferView":20,
			"componentType":5126,
			"count":49,
			"type":"VEC3"
		},
		{
			"bufferView":21,
			"componentType":5126,
			"count":49,
			"type":"VEC4"
		},
		{
			"bufferView":22,
			"componentType":5126,
			"count":49,
			"type":"VEC3"
		},
		{
			"bufferView":23,
			"componentType":5126,
			"count":49,
			"type":"VEC3"
		},
		{
			"bufferView":24,
			"componentType":5126,
			"count":49,
			"type":"VEC4"
		},
		{
			"bufferView":25,
			"componentType":5126,
			"count":49,
			"type":"VEC3"
		},
		{
			"bufferView":26,
			"componentType":5126,
			"count":49,
			"type":"VEC3"
		},
		{
			"bufferView":27,
			"componentType":5126,
			"count":49,
			"type":"VEC4"
		},
		{
			"bufferView":28,
			"componentType":5126,
			"count":49,
			"type":"VEC3"
		},
		{
			"bufferView":29,
			"componentType":5126,
			"count":49,
			"type":"VEC3"
		},
		{
			"bufferView":30,
			"componentType":5126,
			"count":49,
			"type":"VEC4"
		},
		{
			"bufferView":31,
			"componentType":5126,
			"count":49,
			"type":"VEC3"
		},
		{
			"bufferView":32,
			"componentType":5126,
			"count":49,
			"type":"VEC3"
		},
		{
			"bufferView":33,
			"componentType":5126,
			"count":49,
			"type":"VEC4"
		},
		{
			"bufferView":34,
			"componentType":5126,
			"count":49,
			"type":"VEC3"
		},
		{
			"bufferView":35,
			"componentType":5126,
			"count":49,
			"type":"VEC3"
		},
		{
			"bufferView":36,
			"componentType":5126,
			"count":49,
			"type":"VEC4"
		},
		{
			"bufferView":37,
			"componentType":5126,
			"count":49,
			"type":"VEC3"
		},
		{
			"bufferView":38,
			"componentType":5126,
			"count":49,
			"type":"VEC3"
		},
		{
			"bufferView":39,
			"componentType":5126,
			"count":49,
			"type":"VEC4"
		},
		{
			"bufferView":40,
			"componentType":5126,
			"count":49,
			"type":"VEC3"
		}
	],
	"bufferViews":[
		{
			"buffer":0,
			"byteLength":432,
			"byteOffset":0,
			"target":34962
		},
		{
			"buffer":0,
			"byteLength":432,
			"byteOffset":432,
			"target":34962
		},
		{
			"buffer":0,
			"byteLength":288,
			"byteOffset":864,
			"target":34962
		},
		{
			"buffer":0,
			"byteLength":144,
			"byteOffset":1152,
			"target":34962
		},
		{
			"buffer":0,
			"byteLength":288,
			"byteOffset":1296,
			"target":34962
		},
		{
			"buffer":0,
			"byteLength":72,
			"byteOffset":1584,
			"target":34963
		},
		{
			"buffer":0,
			"byteLength":16008,
			"byteOffset":1656,
			"target":34962
		},
		{
			"buffer":0,
			"byteLength":16008,
			"byteOffset":17664,
			"target":34962
		},
		{
			"buffer":0,
			"byteLength":10672,
			"byteOffset":33672,
			"target":34962
		},
		{
			"buffer":0,
			"byteLength":5336,
			"byteOffset":44344,
			"target":34962
		},
		{
			"buffer":0,
			"byteLength":21344,
			"byteOffset":49680,
			"target":34962
		},
		{
			"buffer":0,
			"byteLength":15984,
			"byteOffset":71024,
			"target":34963
		},
		{
			"buffer":0,
			"byteLength":576,
			"byteOffset":87008
		},
		{
			"buffer":0,
			"byteLength":196,
			"byteOffset":87584
		},
		{
			"buffer":0,
			"byteLength":588,
			"byteOffset":87780
		},
		{
			"buffer":0,
			"byteLength":784,
			"byteOffset":88368
		},
		{
			"buffer":0,
			"byteLength":588,
			"byteOffset":89152
		},
		{
			"buffer":0,
			"byteLength":588,
			"byteOffset":89740
		},
		{
			"buffer":0,
			"byteLength":784,
			"byteOffset":90328
		},
		{
			"buffer":0,
			"byteLength":588,
			"byteOffset":91112
		},
		{
			"buffer":0,
			"byteLength":588,
			"byteOffset":91700
		},
		{
			"buffer":0,
			"byteLength":784,
			"byteOffset":92288
		},
		{
			"buffer":0,
			"byteLength":588,
			"byteOffset":93072
		},
		{
			"buffer":0,
			"byteLength":588,
			"byteOffset":93660
		},
		{
			"buffer":0,
			"byteLength":784,
			"byteOffset":94248
		},
		{
			"buffer":0,
			"byteLength":588,
			"byteOffset":95032
		},
		{
			"buffer":0,
			"byteLength":588,
			"byteOffset":95620
		},
		{
			"buffer":0,
			"byteLength":784,
			"byteOffset":96208
		},
		{
			"buffer":0,
			"byteLength":588,
			"byteOffset":96992
		},
		{
			"buffer":0,
			"byteLength":588,
			"byteOffset":97580
		},
		{
			"buffer":0,
			"byteLength":784,
			"byteOffset":98168
		},
		{
			"buffer":0,
			"byteLength":588,
			"byteOffset":98952
		},
		{
			"buffer":0,
			"byteLength":588,
			"byteOffset":99540
		},
		{
			"buffer":0,
			"byteLength":784,
			"byteOffset":100128
		},
		{
			"buffer":0,
			"byteLength":588,
			"byteOffset":100912
		},
		{
			"buffer":0,
			"byteLength":588,
			"byteOffset":101500
		},
		{
			"buffer":0,
			"byteLength":784,
			"byteOffset":102088
		},
		{
			"buffer":0,
			"byteLength":588,
			"byteOffset":102872
		},
		{
			"buffer":0,
			"byteLength":588,
			"byteOffset":103460
		},
		{
			"buffer":0,
			"byteLength":784,
			"byteOffset":104048
		},
		{
			"buffer":0,
			"byteLength":588,
			"byteOffset":104832
		}
	],
	"samplers":[
		{
			"magFilter":9729,
			"minFilter":9987,
			"wrapS":33071,
			"wrapT":33071
		}
	],
	"buffers":[
		{
			"byteLength":105420,
			"uri":"flag-red-gltf-strong-wind.bin"
		}
	]
}
