# Triangulated cylindrical arrow
# Coordinate system: right-handed; origin at bottom center; forward is +Z
mtllib arrow.mtl
o CylindricalArrow
v 0.090000000 0.000000000 0.000000000
v 0.089230038 0.011747357 0.000000000
v 0.086933324 0.023293714 0.000000000
v 0.083149158 0.034441509 0.000000000
v 0.077942286 0.045000000 0.000000000
v 0.071401801 0.054788529 0.000000000
v 0.063639610 0.063639610 0.000000000
v 0.054788529 0.071401801 0.000000000
v 0.045000000 0.077942286 0.000000000
v 0.034441509 0.083149158 0.000000000
v 0.023293714 0.086933324 0.000000000
v 0.011747357 0.089230038 0.000000000
v 0.000000000 0.090000000 0.000000000
v -0.011747357 0.089230038 0.000000000
v -0.023293714 0.086933324 0.000000000
v -0.034441509 0.083149158 0.000000000
v -0.045000000 0.077942286 0.000000000
v -0.054788529 0.071401801 0.000000000
v -0.063639610 0.063639610 0.000000000
v -0.071401801 0.054788529 0.000000000
v -0.077942286 0.045000000 0.000000000
v -0.083149158 0.034441509 0.000000000
v -0.086933324 0.023293714 0.000000000
v -0.089230038 0.011747357 0.000000000
v -0.090000000 0.000000000 0.000000000
v -0.089230038 -0.011747357 0.000000000
v -0.086933324 -0.023293714 0.000000000
v -0.083149158 -0.034441509 0.000000000
v -0.077942286 -0.045000000 0.000000000
v -0.071401801 -0.054788529 0.000000000
v -0.063639610 -0.063639610 0.000000000
v -0.054788529 -0.071401801 0.000000000
v -0.045000000 -0.077942286 0.000000000
v -0.034441509 -0.083149158 0.000000000
v -0.023293714 -0.086933324 0.000000000
v -0.011747357 -0.089230038 0.000000000
v -0.000000000 -0.090000000 0.000000000
v 0.011747357 -0.089230038 0.000000000
v 0.023293714 -0.086933324 0.000000000
v 0.034441509 -0.083149158 0.000000000
v 0.045000000 -0.077942286 0.000000000
v 0.054788529 -0.071401801 0.000000000
v 0.063639610 -0.063639610 0.000000000
v 0.071401801 -0.054788529 0.000000000
v 0.077942286 -0.045000000 0.000000000
v 0.083149158 -0.034441509 0.000000000
v 0.086933324 -0.023293714 0.000000000
v 0.089230038 -0.011747357 0.000000000
v 0.090000000 0.000000000 2.450000000
v 0.089230038 0.011747357 2.450000000
v 0.086933324 0.023293714 2.450000000
v 0.083149158 0.034441509 2.450000000
v 0.077942286 0.045000000 2.450000000
v 0.071401801 0.054788529 2.450000000
v 0.063639610 0.063639610 2.450000000
v 0.054788529 0.071401801 2.450000000
v 0.045000000 0.077942286 2.450000000
v 0.034441509 0.083149158 2.450000000
v 0.023293714 0.086933324 2.450000000
v 0.011747357 0.089230038 2.450000000
v 0.000000000 0.090000000 2.450000000
v -0.011747357 0.089230038 2.450000000
v -0.023293714 0.086933324 2.450000000
v -0.034441509 0.083149158 2.450000000
v -0.045000000 0.077942286 2.450000000
v -0.054788529 0.071401801 2.450000000
v -0.063639610 0.063639610 2.450000000
v -0.071401801 0.054788529 2.450000000
v -0.077942286 0.045000000 2.450000000
v -0.083149158 0.034441509 2.450000000
v -0.086933324 0.023293714 2.450000000
v -0.089230038 0.011747357 2.450000000
v -0.090000000 0.000000000 2.450000000
v -0.089230038 -0.011747357 2.450000000
v -0.086933324 -0.023293714 2.450000000
v -0.083149158 -0.034441509 2.450000000
v -0.077942286 -0.045000000 2.450000000
v -0.071401801 -0.054788529 2.450000000
v -0.063639610 -0.063639610 2.450000000
v -0.054788529 -0.071401801 2.450000000
v -0.045000000 -0.077942286 2.450000000
v -0.034441509 -0.083149158 2.450000000
v -0.023293714 -0.086933324 2.450000000
v -0.011747357 -0.089230038 2.450000000
v -0.000000000 -0.090000000 2.450000000
v 0.011747357 -0.089230038 2.450000000
v 0.023293714 -0.086933324 2.450000000
v 0.034441509 -0.083149158 2.450000000
v 0.045000000 -0.077942286 2.450000000
v 0.054788529 -0.071401801 2.450000000
v 0.063639610 -0.063639610 2.450000000
v 0.071401801 -0.054788529 2.450000000
v 0.077942286 -0.045000000 2.450000000
v 0.083149158 -0.034441509 2.450000000
v 0.086933324 -0.023293714 2.450000000
v 0.089230038 -0.011747357 2.450000000
v 0.280000000 0.000000000 2.450000000
v 0.277604561 0.036547334 2.450000000
v 0.270459231 0.072469333 2.450000000
v 0.258686269 0.107151361 2.450000000
v 0.242487113 0.140000000 2.450000000
v 0.222138935 0.170453200 2.450000000
v 0.197989899 0.197989899 2.450000000
v 0.170453200 0.222138935 2.450000000
v 0.140000000 0.242487113 2.450000000
v 0.107151361 0.258686269 2.450000000
v 0.072469333 0.270459231 2.450000000
v 0.036547334 0.277604561 2.450000000
v 0.000000000 0.280000000 2.450000000
v -0.036547334 0.277604561 2.450000000
v -0.072469333 0.270459231 2.450000000
v -0.107151361 0.258686269 2.450000000
v -0.140000000 0.242487113 2.450000000
v -0.170453200 0.222138935 2.450000000
v -0.197989899 0.197989899 2.450000000
v -0.222138935 0.170453200 2.450000000
v -0.242487113 0.140000000 2.450000000
v -0.258686269 0.107151361 2.450000000
v -0.270459231 0.072469333 2.450000000
v -0.277604561 0.036547334 2.450000000
v -0.280000000 0.000000000 2.450000000
v -0.277604561 -0.036547334 2.450000000
v -0.270459231 -0.072469333 2.450000000
v -0.258686269 -0.107151361 2.450000000
v -0.242487113 -0.140000000 2.450000000
v -0.222138935 -0.170453200 2.450000000
v -0.197989899 -0.197989899 2.450000000
v -0.170453200 -0.222138935 2.450000000
v -0.140000000 -0.242487113 2.450000000
v -0.107151361 -0.258686269 2.450000000
v -0.072469333 -0.270459231 2.450000000
v -0.036547334 -0.277604561 2.450000000
v -0.000000000 -0.280000000 2.450000000
v 0.036547334 -0.277604561 2.450000000
v 0.072469333 -0.270459231 2.450000000
v 0.107151361 -0.258686269 2.450000000
v 0.140000000 -0.242487113 2.450000000
v 0.170453200 -0.222138935 2.450000000
v 0.197989899 -0.197989899 2.450000000
v 0.222138935 -0.170453200 2.450000000
v 0.242487113 -0.140000000 2.450000000
v 0.258686269 -0.107151361 2.450000000
v 0.270459231 -0.072469333 2.450000000
v 0.277604561 -0.036547334 2.450000000
v 0.000000000 0.000000000 0.000000000
v 0.000000000 0.000000000 3.000000000
vn 0.000000000 0.000000000 -1.000000000
vn 0.000000000 0.000000000 -1.000000000
vn 0.000000000 0.000000000 -1.000000000
vn 1.000000000 0.000000000 0.000000000
vn 0.991444861 0.130526192 0.000000000
vn 0.991444861 0.130526192 0.000000000
vn 1.000000000 0.000000000 0.000000000
vn 0.991444861 0.130526192 0.000000000
vn 1.000000000 0.000000000 0.000000000
vn 0.000000000 0.000000000 -1.000000000
vn 0.000000000 0.000000000 -1.000000000
vn 0.000000000 0.000000000 -1.000000000
vn 0.000000000 0.000000000 -1.000000000
vn 0.000000000 0.000000000 -1.000000000
vn 0.000000000 0.000000000 -1.000000000
vn 0.891163116 0.000000000 0.453683041
vn 0.883539092 0.116320128 0.453683041
vn 0.889646796 0.058310532 0.452911096
vn 0.000000000 0.000000000 -1.000000000
vn 0.000000000 0.000000000 -1.000000000
vn 0.000000000 0.000000000 -1.000000000
vn 0.991444861 0.130526192 0.000000000
vn 0.965925826 0.258819045 0.000000000
vn 0.965925826 0.258819045 0.000000000
vn 0.991444861 0.130526192 0.000000000
vn 0.965925826 0.258819045 0.000000000
vn 0.991444861 0.130526192 0.000000000
vn 0.000000000 0.000000000 -1.000000000
vn 0.000000000 0.000000000 -1.000000000
vn 0.000000000 0.000000000 -1.000000000
vn 0.000000000 0.000000000 -1.000000000
vn 0.000000000 0.000000000 -1.000000000
vn 0.000000000 0.000000000 -1.000000000
vn 0.883539092 0.116320128 0.453683041
vn 0.860797469 0.230649987 0.453683041
vn 0.874424692 0.173933886 0.452911096
vn 0.000000000 0.000000000 -1.000000000
vn 0.000000000 0.000000000 -1.000000000
vn 0.000000000 0.000000000 -1.000000000
vn 0.965925826 0.258819045 0.000000000
vn 0.923879533 0.382683432 0.000000000
vn 0.923879533 0.382683432 0.000000000
vn 0.965925826 0.258819045 0.000000000
vn 0.923879533 0.382683432 0.000000000
vn 0.965925826 0.258819045 0.000000000
vn 0.000000000 0.000000000 -1.000000000
vn 0.000000000 0.000000000 -1.000000000
vn 0.000000000 0.000000000 -1.000000000
vn 0.000000000 0.000000000 -1.000000000
vn 0.000000000 0.000000000 -1.000000000
vn 0.000000000 0.000000000 -1.000000000
vn 0.860797469 0.230649987 0.453683041
vn 0.823327363 0.341033360 0.453683041
vn 0.844240940 0.286581183 0.452911096
vn 0.000000000 0.000000000 -1.000000000
vn 0.000000000 0.000000000 -1.000000000
vn 0.000000000 0.000000000 -1.000000000
vn 0.923879533 0.382683432 0.000000000
vn 0.866025404 0.500000000 0.000000000
vn 0.866025404 0.500000000 0.000000000
vn 0.923879533 0.382683432 0.000000000
vn 0.866025404 0.500000000 0.000000000
vn 0.923879533 0.382683432 0.000000000
vn 0.000000000 0.000000000 -1.000000000
vn 0.000000000 0.000000000 -1.000000000
vn 0.000000000 0.000000000 -1.000000000
vn 0.000000000 0.000000000 -1.000000000
vn 0.000000000 0.000000000 -1.000000000
vn 0.000000000 0.000000000 -1.000000000
vn 0.823327363 0.341033360 0.453683041
vn 0.771769897 0.445581558 0.453683041
vn 0.799611991 0.394324996 0.452911096
vn 0.000000000 0.000000000 -1.000000000
vn 0.000000000 0.000000000 -1.000000000
vn 0.000000000 0.000000000 -1.000000000
vn 0.866025404 0.500000000 0.000000000
vn 0.793353340 0.608761429 0.000000000
vn 0.793353340 0.608761429 0.000000000
vn 0.866025404 0.500000000 0.000000000
vn 0.793353340 0.608761429 0.000000000
vn 0.866025404 0.500000000 0.000000000
vn 0.000000000 0.000000000 -1.000000000
vn 0.000000000 0.000000000 -1.000000000
vn 0.000000000 0.000000000 -1.000000000
vn 0.000000000 0.000000000 -1.000000000
vn 0.000000000 0.000000000 -1.000000000
vn 0.000000000 0.000000000 -1.000000000
vn 0.771769897 0.445581558 0.453683041
vn 0.707007235 0.542505732 0.453683041
vn 0.741301460 0.495321800 0.452911096
vn 0.000000000 0.000000000 -1.000000000
vn 0.000000000 0.000000000 -1.000000000
vn 0.000000000 0.000000000 -1.000000000
vn 0.793353340 0.608761429 0.000000000
vn 0.707106781 0.707106781 0.000000000
vn 0.707106781 0.707106781 0.000000000
vn 0.793353340 0.608761429 0.000000000
vn 0.707106781 0.707106781 0.000000000
vn 0.793353340 0.608761429 0.000000000
vn 0.000000000 0.000000000 -1.000000000
vn 0.000000000 0.000000000 -1.000000000
vn 0.000000000 0.000000000 -1.000000000
vn 0.000000000 0.000000000 -1.000000000
vn 0.000000000 0.000000000 -1.000000000
vn 0.000000000 0.000000000 -1.000000000
vn 0.707007235 0.542505732 0.453683041
vn 0.630147482 0.630147482 0.453683041
vn 0.670307054 0.587843510 0.452911096
vn 0.000000000 0.000000000 -1.000000000
vn 0.000000000 0.000000000 -1.000000000
vn 0.000000000 0.000000000 -1.000000000
vn 0.707106781 0.707106781 0.000000000
vn 0.608761429 0.793353340 0.000000000
vn 0.608761429 0.793353340 0.000000000
vn 0.707106781 0.707106781 0.000000000
vn 0.608761429 0.793353340 0.000000000
vn 0.707106781 0.707106781 0.000000000
vn 0.000000000 0.000000000 -1.000000000
vn 0.000000000 0.000000000 -1.000000000
vn 0.000000000 0.000000000 -1.000000000
vn 0.000000000 0.000000000 -1.000000000
vn 0.000000000 0.000000000 -1.000000000
vn 0.000000000 0.000000000 -1.000000000
vn 0.630147482 0.630147482 0.453683041
vn 0.542505732 0.707007235 0.453683041
vn 0.587843510 0.670307054 0.452911096
vn 0.000000000 0.000000000 -1.000000000
vn 0.000000000 0.000000000 -1.000000000
vn 0.000000000 0.000000000 -1.000000000
vn 0.608761429 0.793353340 0.000000000
vn 0.500000000 0.866025404 0.000000000
vn 0.500000000 0.866025404 0.000000000
vn 0.608761429 0.793353340 0.000000000
vn 0.500000000 0.866025404 0.000000000
vn 0.608761429 0.793353340 0.000000000
vn 0.000000000 0.000000000 -1.000000000
vn 0.000000000 0.000000000 -1.000000000
vn 0.000000000 0.000000000 -1.000000000
vn 0.000000000 0.000000000 -1.000000000
vn 0.000000000 0.000000000 -1.000000000
vn 0.000000000 0.000000000 -1.000000000
vn 0.542505732 0.707007235 0.453683041
vn 0.445581558 0.771769897 0.453683041
vn 0.495321800 0.741301460 0.452911096
vn 0.000000000 0.000000000 -1.000000000
vn 0.000000000 0.000000000 -1.000000000
vn 0.000000000 0.000000000 -1.000000000
vn 0.500000000 0.866025404 0.000000000
vn 0.382683432 0.923879533 0.000000000
vn 0.382683432 0.923879533 0.000000000
vn 0.500000000 0.866025404 0.000000000
vn 0.382683432 0.923879533 0.000000000
vn 0.500000000 0.866025404 0.000000000
vn 0.000000000 0.000000000 -1.000000000
vn 0.000000000 0.000000000 -1.000000000
vn 0.000000000 0.000000000 -1.000000000
vn 0.000000000 0.000000000 -1.000000000
vn 0.000000000 0.000000000 -1.000000000
vn 0.000000000 0.000000000 -1.000000000
vn 0.445581558 0.771769897 0.453683041
vn 0.341033360 0.823327363 0.453683041
vn 0.394324996 0.799611991 0.452911096
vn 0.000000000 0.000000000 -1.000000000
vn 0.000000000 0.000000000 -1.000000000
vn 0.000000000 0.000000000 -1.000000000
vn 0.382683432 0.923879533 0.000000000
vn 0.258819045 0.965925826 0.000000000
vn 0.258819045 0.965925826 0.000000000
vn 0.382683432 0.923879533 0.000000000
vn 0.258819045 0.965925826 0.000000000
vn 0.382683432 0.923879533 0.000000000
vn 0.000000000 0.000000000 -1.000000000
vn 0.000000000 0.000000000 -1.000000000
vn 0.000000000 0.000000000 -1.000000000
vn 0.000000000 0.000000000 -1.000000000
vn 0.000000000 0.000000000 -1.000000000
vn 0.000000000 0.000000000 -1.000000000
vn 0.341033360 0.823327363 0.453683041
vn 0.230649987 0.860797469 0.453683041
vn 0.286581183 0.844240940 0.452911096
vn 0.000000000 0.000000000 -1.000000000
vn 0.000000000 0.000000000 -1.000000000
vn 0.000000000 0.000000000 -1.000000000
vn 0.258819045 0.965925826 0.000000000
vn 0.130526192 0.991444861 0.000000000
vn 0.130526192 0.991444861 0.000000000
vn 0.258819045 0.965925826 0.000000000
vn 0.130526192 0.991444861 0.000000000
vn 0.258819045 0.965925826 0.000000000
vn 0.000000000 0.000000000 -1.000000000
vn 0.000000000 0.000000000 -1.000000000
vn 0.000000000 0.000000000 -1.000000000
vn 0.000000000 0.000000000 -1.000000000
vn 0.000000000 0.000000000 -1.000000000
vn 0.000000000 0.000000000 -1.000000000
vn 0.230649987 0.860797469 0.453683041
vn 0.116320128 0.883539092 0.453683041
vn 0.173933886 0.874424692 0.452911096
vn 0.000000000 0.000000000 -1.000000000
vn 0.000000000 0.000000000 -1.000000000
vn 0.000000000 0.000000000 -1.000000000
vn 0.130526192 0.991444861 0.000000000
vn 0.000000000 1.000000000 0.000000000
vn 0.000000000 1.000000000 0.000000000
vn 0.130526192 0.991444861 0.000000000
vn 0.000000000 1.000000000 0.000000000
vn 0.130526192 0.991444861 0.000000000
vn 0.000000000 0.000000000 -1.000000000
vn 0.000000000 0.000000000 -1.000000000
vn 0.000000000 0.000000000 -1.000000000
vn 0.000000000 0.000000000 -1.000000000
vn 0.000000000 0.000000000 -1.000000000
vn 0.000000000 0.000000000 -1.000000000
vn 0.116320128 0.883539092 0.453683041
vn 0.000000000 0.891163116 0.453683041
vn 0.058310532 0.889646796 0.452911096
vn 0.000000000 0.000000000 -1.000000000
vn 0.000000000 0.000000000 -1.000000000
vn 0.000000000 0.000000000 -1.000000000
vn 0.000000000 1.000000000 0.000000000
vn -0.130526192 0.991444861 0.000000000
vn -0.130526192 0.991444861 0.000000000
vn 0.000000000 1.000000000 0.000000000
vn -0.130526192 0.991444861 0.000000000
vn 0.000000000 1.000000000 0.000000000
vn -0.000000000 0.000000000 -1.000000000
vn -0.000000000 0.000000000 -1.000000000
vn -0.000000000 0.000000000 -1.000000000
vn 0.000000000 0.000000000 -1.000000000
vn 0.000000000 0.000000000 -1.000000000
vn 0.000000000 0.000000000 -1.000000000
vn 0.000000000 0.891163116 0.453683041
vn -0.116320128 0.883539092 0.453683041
vn -0.058310532 0.889646796 0.452911096
vn 0.000000000 0.000000000 -1.000000000
vn 0.000000000 0.000000000 -1.000000000
vn 0.000000000 0.000000000 -1.000000000
vn -0.130526192 0.991444861 0.000000000
vn -0.258819045 0.965925826 0.000000000
vn -0.258819045 0.965925826 0.000000000
vn -0.130526192 0.991444861 0.000000000
vn -0.258819045 0.965925826 0.000000000
vn -0.130526192 0.991444861 0.000000000
vn -0.000000000 0.000000000 -1.000000000
vn -0.000000000 0.000000000 -1.000000000
vn -0.000000000 0.000000000 -1.000000000
vn 0.000000000 0.000000000 -1.000000000
vn 0.000000000 0.000000000 -1.000000000
vn 0.000000000 0.000000000 -1.000000000
vn -0.116320128 0.883539092 0.453683041
vn -0.230649987 0.860797469 0.453683041
vn -0.173933886 0.874424692 0.452911096
vn 0.000000000 0.000000000 -1.000000000
vn 0.000000000 0.000000000 -1.000000000
vn 0.000000000 0.000000000 -1.000000000
vn -0.258819045 0.965925826 0.000000000
vn -0.382683432 0.923879533 0.000000000
vn -0.382683432 0.923879533 0.000000000
vn -0.258819045 0.965925826 0.000000000
vn -0.382683432 0.923879533 0.000000000
vn -0.258819045 0.965925826 0.000000000
vn -0.000000000 0.000000000 -1.000000000
vn -0.000000000 0.000000000 -1.000000000
vn -0.000000000 0.000000000 -1.000000000
vn 0.000000000 0.000000000 -1.000000000
vn 0.000000000 0.000000000 -1.000000000
vn 0.000000000 0.000000000 -1.000000000
vn -0.230649987 0.860797469 0.453683041
vn -0.341033360 0.823327363 0.453683041
vn -0.286581183 0.844240940 0.452911096
vn 0.000000000 0.000000000 -1.000000000
vn 0.000000000 0.000000000 -1.000000000
vn 0.000000000 0.000000000 -1.000000000
vn -0.382683432 0.923879533 0.000000000
vn -0.500000000 0.866025404 0.000000000
vn -0.500000000 0.866025404 0.000000000
vn -0.382683432 0.923879533 0.000000000
vn -0.500000000 0.866025404 0.000000000
vn -0.382683432 0.923879533 0.000000000
vn -0.000000000 0.000000000 -1.000000000
vn -0.000000000 0.000000000 -1.000000000
vn -0.000000000 0.000000000 -1.000000000
vn 0.000000000 0.000000000 -1.000000000
vn 0.000000000 0.000000000 -1.000000000
vn 0.000000000 0.000000000 -1.000000000
vn -0.341033360 0.823327363 0.453683041
vn -0.445581558 0.771769897 0.453683041
vn -0.394324996 0.799611991 0.452911096
vn 0.000000000 0.000000000 -1.000000000
vn 0.000000000 0.000000000 -1.000000000
vn 0.000000000 0.000000000 -1.000000000
vn -0.500000000 0.866025404 0.000000000
vn -0.608761429 0.793353340 0.000000000
vn -0.608761429 0.793353340 0.000000000
vn -0.500000000 0.866025404 0.000000000
vn -0.608761429 0.793353340 0.000000000
vn -0.500000000 0.866025404 0.000000000
vn -0.000000000 0.000000000 -1.000000000
vn -0.000000000 0.000000000 -1.000000000
vn -0.000000000 0.000000000 -1.000000000
vn 0.000000000 0.000000000 -1.000000000
vn 0.000000000 0.000000000 -1.000000000
vn 0.000000000 0.000000000 -1.000000000
vn -0.445581558 0.771769897 0.453683041
vn -0.542505732 0.707007235 0.453683041
vn -0.495321800 0.741301460 0.452911096
vn 0.000000000 0.000000000 -1.000000000
vn 0.000000000 0.000000000 -1.000000000
vn 0.000000000 0.000000000 -1.000000000
vn -0.608761429 0.793353340 0.000000000
vn -0.707106781 0.707106781 0.000000000
vn -0.707106781 0.707106781 0.000000000
vn -0.608761429 0.793353340 0.000000000
vn -0.707106781 0.707106781 0.000000000
vn -0.608761429 0.793353340 0.000000000
vn -0.000000000 0.000000000 -1.000000000
vn -0.000000000 0.000000000 -1.000000000
vn -0.000000000 0.000000000 -1.000000000
vn 0.000000000 0.000000000 -1.000000000
vn 0.000000000 0.000000000 -1.000000000
vn 0.000000000 0.000000000 -1.000000000
vn -0.542505732 0.707007235 0.453683041
vn -0.630147482 0.630147482 0.453683041
vn -0.587843510 0.670307054 0.452911096
vn 0.000000000 0.000000000 -1.000000000
vn 0.000000000 0.000000000 -1.000000000
vn 0.000000000 0.000000000 -1.000000000
vn -0.707106781 0.707106781 0.000000000
vn -0.793353340 0.608761429 0.000000000
vn -0.793353340 0.608761429 0.000000000
vn -0.707106781 0.707106781 0.000000000
vn -0.793353340 0.608761429 0.000000000
vn -0.707106781 0.707106781 0.000000000
vn -0.000000000 0.000000000 -1.000000000
vn -0.000000000 0.000000000 -1.000000000
vn -0.000000000 0.000000000 -1.000000000
vn 0.000000000 0.000000000 -1.000000000
vn 0.000000000 0.000000000 -1.000000000
vn 0.000000000 0.000000000 -1.000000000
vn -0.630147482 0.630147482 0.453683041
vn -0.707007235 0.542505732 0.453683041
vn -0.670307054 0.587843510 0.452911096
vn 0.000000000 0.000000000 -1.000000000
vn 0.000000000 0.000000000 -1.000000000
vn 0.000000000 0.000000000 -1.000000000
vn -0.793353340 0.608761429 0.000000000
vn -0.866025404 0.500000000 0.000000000
vn -0.866025404 0.500000000 0.000000000
vn -0.793353340 0.608761429 0.000000000
vn -0.866025404 0.500000000 0.000000000
vn -0.793353340 0.608761429 0.000000000
vn -0.000000000 0.000000000 -1.000000000
vn -0.000000000 0.000000000 -1.000000000
vn -0.000000000 0.000000000 -1.000000000
vn 0.000000000 0.000000000 -1.000000000
vn 0.000000000 0.000000000 -1.000000000
vn 0.000000000 0.000000000 -1.000000000
vn -0.707007235 0.542505732 0.453683041
vn -0.771769897 0.445581558 0.453683041
vn -0.741301460 0.495321800 0.452911096
vn 0.000000000 0.000000000 -1.000000000
vn 0.000000000 0.000000000 -1.000000000
vn 0.000000000 0.000000000 -1.000000000
vn -0.866025404 0.500000000 0.000000000
vn -0.923879533 0.382683432 0.000000000
vn -0.923879533 0.382683432 0.000000000
vn -0.866025404 0.500000000 0.000000000
vn -0.923879533 0.382683432 0.000000000
vn -0.866025404 0.500000000 0.000000000
vn -0.000000000 0.000000000 -1.000000000
vn -0.000000000 0.000000000 -1.000000000
vn -0.000000000 0.000000000 -1.000000000
vn 0.000000000 0.000000000 -1.000000000
vn 0.000000000 0.000000000 -1.000000000
vn 0.000000000 0.000000000 -1.000000000
vn -0.771769897 0.445581558 0.453683041
vn -0.823327363 0.341033360 0.453683041
vn -0.799611991 0.394324996 0.452911096
vn 0.000000000 0.000000000 -1.000000000
vn 0.000000000 0.000000000 -1.000000000
vn 0.000000000 0.000000000 -1.000000000
vn -0.923879533 0.382683432 0.000000000
vn -0.965925826 0.258819045 0.000000000
vn -0.965925826 0.258819045 0.000000000
vn -0.923879533 0.382683432 0.000000000
vn -0.965925826 0.258819045 0.000000000
vn -0.923879533 0.382683432 0.000000000
vn -0.000000000 0.000000000 -1.000000000
vn -0.000000000 0.000000000 -1.000000000
vn -0.000000000 0.000000000 -1.000000000
vn 0.000000000 0.000000000 -1.000000000
vn 0.000000000 0.000000000 -1.000000000
vn 0.000000000 0.000000000 -1.000000000
vn -0.823327363 0.341033360 0.453683041
vn -0.860797469 0.230649987 0.453683041
vn -0.844240940 0.286581183 0.452911096
vn 0.000000000 0.000000000 -1.000000000
vn 0.000000000 0.000000000 -1.000000000
vn 0.000000000 0.000000000 -1.000000000
vn -0.965925826 0.258819045 0.000000000
vn -0.991444861 0.130526192 0.000000000
vn -0.991444861 0.130526192 0.000000000
vn -0.965925826 0.258819045 0.000000000
vn -0.991444861 0.130526192 0.000000000
vn -0.965925826 0.258819045 0.000000000
vn -0.000000000 0.000000000 -1.000000000
vn -0.000000000 0.000000000 -1.000000000
vn -0.000000000 0.000000000 -1.000000000
vn 0.000000000 0.000000000 -1.000000000
vn 0.000000000 0.000000000 -1.000000000
vn 0.000000000 0.000000000 -1.000000000
vn -0.860797469 0.230649987 0.453683041
vn -0.883539092 0.116320128 0.453683041
vn -0.874424692 0.173933886 0.452911096
vn 0.000000000 0.000000000 -1.000000000
vn 0.000000000 0.000000000 -1.000000000
vn 0.000000000 0.000000000 -1.000000000
vn -0.991444861 0.130526192 0.000000000
vn -1.000000000 0.000000000 0.000000000
vn -1.000000000 0.000000000 0.000000000
vn -0.991444861 0.130526192 0.000000000
vn -1.000000000 0.000000000 0.000000000
vn -0.991444861 0.130526192 0.000000000
vn 0.000000000 0.000000000 -1.000000000
vn 0.000000000 0.000000000 -1.000000000
vn 0.000000000 0.000000000 -1.000000000
vn -0.000000000 0.000000000 -1.000000000
vn -0.000000000 0.000000000 -1.000000000
vn -0.000000000 0.000000000 -1.000000000
vn -0.883539092 0.116320128 0.453683041
vn -0.891163116 0.000000000 0.453683041
vn -0.889646796 0.058310532 0.452911096
vn -0.000000000 0.000000000 -1.000000000
vn -0.000000000 0.000000000 -1.000000000
vn -0.000000000 0.000000000 -1.000000000
vn -1.000000000 0.000000000 0.000000000
vn -0.991444861 -0.130526192 0.000000000
vn -0.991444861 -0.130526192 0.000000000
vn -1.000000000 0.000000000 0.000000000
vn -0.991444861 -0.130526192 0.000000000
vn -1.000000000 0.000000000 0.000000000
vn 0.000000000 -0.000000000 -1.000000000
vn 0.000000000 -0.000000000 -1.000000000
vn 0.000000000 -0.000000000 -1.000000000
vn -0.000000000 0.000000000 -1.000000000
vn -0.000000000 0.000000000 -1.000000000
vn -0.000000000 0.000000000 -1.000000000
vn -0.891163116 0.000000000 0.453683041
vn -0.883539092 -0.116320128 0.453683041
vn -0.889646796 -0.058310532 0.452911096
vn 0.000000000 0.000000000 -1.000000000
vn 0.000000000 0.000000000 -1.000000000
vn 0.000000000 0.000000000 -1.000000000
vn -0.991444861 -0.130526192 0.000000000
vn -0.965925826 -0.258819045 0.000000000
vn -0.965925826 -0.258819045 0.000000000
vn -0.991444861 -0.130526192 0.000000000
vn -0.965925826 -0.258819045 0.000000000
vn -0.991444861 -0.130526192 0.000000000
vn 0.000000000 -0.000000000 -1.000000000
vn 0.000000000 -0.000000000 -1.000000000
vn 0.000000000 -0.000000000 -1.000000000
vn 0.000000000 0.000000000 -1.000000000
vn 0.000000000 0.000000000 -1.000000000
vn 0.000000000 0.000000000 -1.000000000
vn -0.883539092 -0.116320128 0.453683041
vn -0.860797469 -0.230649987 0.453683041
vn -0.874424692 -0.173933886 0.452911096
vn 0.000000000 0.000000000 -1.000000000
vn 0.000000000 0.000000000 -1.000000000
vn 0.000000000 0.000000000 -1.000000000
vn -0.965925826 -0.258819045 0.000000000
vn -0.923879533 -0.382683432 0.000000000
vn -0.923879533 -0.382683432 0.000000000
vn -0.965925826 -0.258819045 0.000000000
vn -0.923879533 -0.382683432 0.000000000
vn -0.965925826 -0.258819045 0.000000000
vn 0.000000000 -0.000000000 -1.000000000
vn 0.000000000 -0.000000000 -1.000000000
vn 0.000000000 -0.000000000 -1.000000000
vn 0.000000000 0.000000000 -1.000000000
vn 0.000000000 0.000000000 -1.000000000
vn 0.000000000 0.000000000 -1.000000000
vn -0.860797469 -0.230649987 0.453683041
vn -0.823327363 -0.341033360 0.453683041
vn -0.844240940 -0.286581183 0.452911096
vn 0.000000000 0.000000000 -1.000000000
vn 0.000000000 0.000000000 -1.000000000
vn 0.000000000 0.000000000 -1.000000000
vn -0.923879533 -0.382683432 0.000000000
vn -0.866025404 -0.500000000 0.000000000
vn -0.866025404 -0.500000000 0.000000000
vn -0.923879533 -0.382683432 0.000000000
vn -0.866025404 -0.500000000 0.000000000
vn -0.923879533 -0.382683432 0.000000000
vn 0.000000000 -0.000000000 -1.000000000
vn 0.000000000 -0.000000000 -1.000000000
vn 0.000000000 -0.000000000 -1.000000000
vn 0.000000000 0.000000000 -1.000000000
vn 0.000000000 0.000000000 -1.000000000
vn 0.000000000 0.000000000 -1.000000000
vn -0.823327363 -0.341033360 0.453683041
vn -0.771769897 -0.445581558 0.453683041
vn -0.799611991 -0.394324996 0.452911096
vn 0.000000000 0.000000000 -1.000000000
vn 0.000000000 0.000000000 -1.000000000
vn 0.000000000 0.000000000 -1.000000000
vn -0.866025404 -0.500000000 0.000000000
vn -0.793353340 -0.608761429 0.000000000
vn -0.793353340 -0.608761429 0.000000000
vn -0.866025404 -0.500000000 0.000000000
vn -0.793353340 -0.608761429 0.000000000
vn -0.866025404 -0.500000000 0.000000000
vn 0.000000000 -0.000000000 -1.000000000
vn 0.000000000 -0.000000000 -1.000000000
vn 0.000000000 -0.000000000 -1.000000000
vn 0.000000000 0.000000000 -1.000000000
vn 0.000000000 0.000000000 -1.000000000
vn 0.000000000 0.000000000 -1.000000000
vn -0.771769897 -0.445581558 0.453683041
vn -0.707007235 -0.542505732 0.453683041
vn -0.741301460 -0.495321800 0.452911096
vn 0.000000000 0.000000000 -1.000000000
vn 0.000000000 0.000000000 -1.000000000
vn 0.000000000 0.000000000 -1.000000000
vn -0.793353340 -0.608761429 0.000000000
vn -0.707106781 -0.707106781 0.000000000
vn -0.707106781 -0.707106781 0.000000000
vn -0.793353340 -0.608761429 0.000000000
vn -0.707106781 -0.707106781 0.000000000
vn -0.793353340 -0.608761429 0.000000000
vn 0.000000000 -0.000000000 -1.000000000
vn 0.000000000 -0.000000000 -1.000000000
vn 0.000000000 -0.000000000 -1.000000000
vn 0.000000000 0.000000000 -1.000000000
vn 0.000000000 0.000000000 -1.000000000
vn 0.000000000 0.000000000 -1.000000000
vn -0.707007235 -0.542505732 0.453683041
vn -0.630147482 -0.630147482 0.453683041
vn -0.670307054 -0.587843510 0.452911096
vn 0.000000000 0.000000000 -1.000000000
vn 0.000000000 0.000000000 -1.000000000
vn 0.000000000 0.000000000 -1.000000000
vn -0.707106781 -0.707106781 0.000000000
vn -0.608761429 -0.793353340 0.000000000
vn -0.608761429 -0.793353340 0.000000000
vn -0.707106781 -0.707106781 0.000000000
vn -0.608761429 -0.793353340 0.000000000
vn -0.707106781 -0.707106781 0.000000000
vn 0.000000000 -0.000000000 -1.000000000
vn 0.000000000 -0.000000000 -1.000000000
vn 0.000000000 -0.000000000 -1.000000000
vn 0.000000000 0.000000000 -1.000000000
vn 0.000000000 0.000000000 -1.000000000
vn 0.000000000 0.000000000 -1.000000000
vn -0.630147482 -0.630147482 0.453683041
vn -0.542505732 -0.707007235 0.453683041
vn -0.587843510 -0.670307054 0.452911096
vn 0.000000000 0.000000000 -1.000000000
vn 0.000000000 0.000000000 -1.000000000
vn 0.000000000 0.000000000 -1.000000000
vn -0.608761429 -0.793353340 0.000000000
vn -0.500000000 -0.866025404 0.000000000
vn -0.500000000 -0.866025404 0.000000000
vn -0.608761429 -0.793353340 0.000000000
vn -0.500000000 -0.866025404 0.000000000
vn -0.608761429 -0.793353340 0.000000000
vn 0.000000000 -0.000000000 -1.000000000
vn 0.000000000 -0.000000000 -1.000000000
vn 0.000000000 -0.000000000 -1.000000000
vn 0.000000000 0.000000000 -1.000000000
vn 0.000000000 0.000000000 -1.000000000
vn 0.000000000 0.000000000 -1.000000000
vn -0.542505732 -0.707007235 0.453683041
vn -0.445581558 -0.771769897 0.453683041
vn -0.495321800 -0.741301460 0.452911096
vn 0.000000000 0.000000000 -1.000000000
vn 0.000000000 0.000000000 -1.000000000
vn 0.000000000 0.000000000 -1.000000000
vn -0.500000000 -0.866025404 0.000000000
vn -0.382683432 -0.923879533 0.000000000
vn -0.382683432 -0.923879533 0.000000000
vn -0.500000000 -0.866025404 0.000000000
vn -0.382683432 -0.923879533 0.000000000
vn -0.500000000 -0.866025404 0.000000000
vn 0.000000000 -0.000000000 -1.000000000
vn 0.000000000 -0.000000000 -1.000000000
vn 0.000000000 -0.000000000 -1.000000000
vn 0.000000000 0.000000000 -1.000000000
vn 0.000000000 0.000000000 -1.000000000
vn 0.000000000 0.000000000 -1.000000000
vn -0.445581558 -0.771769897 0.453683041
vn -0.341033360 -0.823327363 0.453683041
vn -0.394324996 -0.799611991 0.452911096
vn 0.000000000 0.000000000 -1.000000000
vn 0.000000000 0.000000000 -1.000000000
vn 0.000000000 0.000000000 -1.000000000
vn -0.382683432 -0.923879533 0.000000000
vn -0.258819045 -0.965925826 0.000000000
vn -0.258819045 -0.965925826 0.000000000
vn -0.382683432 -0.923879533 0.000000000
vn -0.258819045 -0.965925826 0.000000000
vn -0.382683432 -0.923879533 0.000000000
vn 0.000000000 -0.000000000 -1.000000000
vn 0.000000000 -0.000000000 -1.000000000
vn 0.000000000 -0.000000000 -1.000000000
vn 0.000000000 0.000000000 -1.000000000
vn 0.000000000 0.000000000 -1.000000000
vn 0.000000000 0.000000000 -1.000000000
vn -0.341033360 -0.823327363 0.453683041
vn -0.230649987 -0.860797469 0.453683041
vn -0.286581183 -0.844240940 0.452911096
vn 0.000000000 0.000000000 -1.000000000
vn 0.000000000 0.000000000 -1.000000000
vn 0.000000000 0.000000000 -1.000000000
vn -0.258819045 -0.965925826 0.000000000
vn -0.130526192 -0.991444861 0.000000000
vn -0.130526192 -0.991444861 0.000000000
vn -0.258819045 -0.965925826 0.000000000
vn -0.130526192 -0.991444861 0.000000000
vn -0.258819045 -0.965925826 0.000000000
vn 0.000000000 -0.000000000 -1.000000000
vn 0.000000000 -0.000000000 -1.000000000
vn 0.000000000 -0.000000000 -1.000000000
vn 0.000000000 0.000000000 -1.000000000
vn 0.000000000 0.000000000 -1.000000000
vn 0.000000000 0.000000000 -1.000000000
vn -0.230649987 -0.860797469 0.453683041
vn -0.116320128 -0.883539092 0.453683041
vn -0.173933886 -0.874424692 0.452911096
vn 0.000000000 0.000000000 -1.000000000
vn 0.000000000 0.000000000 -1.000000000
vn 0.000000000 0.000000000 -1.000000000
vn -0.130526192 -0.991444861 0.000000000
vn -0.000000000 -1.000000000 0.000000000
vn -0.000000000 -1.000000000 0.000000000
vn -0.130526192 -0.991444861 0.000000000
vn -0.000000000 -1.000000000 0.000000000
vn -0.130526192 -0.991444861 0.000000000
vn 0.000000000 0.000000000 -1.000000000
vn 0.000000000 0.000000000 -1.000000000
vn 0.000000000 0.000000000 -1.000000000
vn 0.000000000 -0.000000000 -1.000000000
vn 0.000000000 -0.000000000 -1.000000000
vn 0.000000000 -0.000000000 -1.000000000
vn -0.116320128 -0.883539092 0.453683041
vn -0.000000000 -0.891163116 0.453683041
vn -0.058310532 -0.889646796 0.452911096
vn 0.000000000 -0.000000000 -1.000000000
vn 0.000000000 -0.000000000 -1.000000000
vn 0.000000000 -0.000000000 -1.000000000
vn -0.000000000 -1.000000000 0.000000000
vn 0.130526192 -0.991444861 0.000000000
vn 0.130526192 -0.991444861 0.000000000
vn -0.000000000 -1.000000000 0.000000000
vn 0.130526192 -0.991444861 0.000000000
vn -0.000000000 -1.000000000 0.000000000
vn 0.000000000 0.000000000 -1.000000000
vn 0.000000000 0.000000000 -1.000000000
vn 0.000000000 0.000000000 -1.000000000
vn 0.000000000 -0.000000000 -1.000000000
vn 0.000000000 -0.000000000 -1.000000000
vn 0.000000000 -0.000000000 -1.000000000
vn -0.000000000 -0.891163116 0.453683041
vn 0.116320128 -0.883539092 0.453683041
vn 0.058310532 -0.889646796 0.452911096
vn 0.000000000 0.000000000 -1.000000000
vn 0.000000000 0.000000000 -1.000000000
vn 0.000000000 0.000000000 -1.000000000
vn 0.130526192 -0.991444861 0.000000000
vn 0.258819045 -0.965925826 0.000000000
vn 0.258819045 -0.965925826 0.000000000
vn 0.130526192 -0.991444861 0.000000000
vn 0.258819045 -0.965925826 0.000000000
vn 0.130526192 -0.991444861 0.000000000
vn 0.000000000 0.000000000 -1.000000000
vn 0.000000000 0.000000000 -1.000000000
vn 0.000000000 0.000000000 -1.000000000
vn 0.000000000 0.000000000 -1.000000000
vn 0.000000000 0.000000000 -1.000000000
vn 0.000000000 0.000000000 -1.000000000
vn 0.116320128 -0.883539092 0.453683041
vn 0.230649987 -0.860797469 0.453683041
vn 0.173933886 -0.874424692 0.452911096
vn 0.000000000 0.000000000 -1.000000000
vn 0.000000000 0.000000000 -1.000000000
vn 0.000000000 0.000000000 -1.000000000
vn 0.258819045 -0.965925826 0.000000000
vn 0.382683432 -0.923879533 0.000000000
vn 0.382683432 -0.923879533 0.000000000
vn 0.258819045 -0.965925826 0.000000000
vn 0.382683432 -0.923879533 0.000000000
vn 0.258819045 -0.965925826 0.000000000
vn 0.000000000 0.000000000 -1.000000000
vn 0.000000000 0.000000000 -1.000000000
vn 0.000000000 0.000000000 -1.000000000
vn 0.000000000 0.000000000 -1.000000000
vn 0.000000000 0.000000000 -1.000000000
vn 0.000000000 0.000000000 -1.000000000
vn 0.230649987 -0.860797469 0.453683041
vn 0.341033360 -0.823327363 0.453683041
vn 0.286581183 -0.844240940 0.452911096
vn 0.000000000 0.000000000 -1.000000000
vn 0.000000000 0.000000000 -1.000000000
vn 0.000000000 0.000000000 -1.000000000
vn 0.382683432 -0.923879533 0.000000000
vn 0.500000000 -0.866025404 0.000000000
vn 0.500000000 -0.866025404 0.000000000
vn 0.382683432 -0.923879533 0.000000000
vn 0.500000000 -0.866025404 0.000000000
vn 0.382683432 -0.923879533 0.000000000
vn 0.000000000 0.000000000 -1.000000000
vn 0.000000000 0.000000000 -1.000000000
vn 0.000000000 0.000000000 -1.000000000
vn 0.000000000 0.000000000 -1.000000000
vn 0.000000000 0.000000000 -1.000000000
vn 0.000000000 0.000000000 -1.000000000
vn 0.341033360 -0.823327363 0.453683041
vn 0.445581558 -0.771769897 0.453683041
vn 0.394324996 -0.799611991 0.452911096
vn 0.000000000 0.000000000 -1.000000000
vn 0.000000000 0.000000000 -1.000000000
vn 0.000000000 0.000000000 -1.000000000
vn 0.500000000 -0.866025404 0.000000000
vn 0.608761429 -0.793353340 0.000000000
vn 0.608761429 -0.793353340 0.000000000
vn 0.500000000 -0.866025404 0.000000000
vn 0.608761429 -0.793353340 0.000000000
vn 0.500000000 -0.866025404 0.000000000
vn 0.000000000 0.000000000 -1.000000000
vn 0.000000000 0.000000000 -1.000000000
vn 0.000000000 0.000000000 -1.000000000
vn 0.000000000 0.000000000 -1.000000000
vn 0.000000000 0.000000000 -1.000000000
vn 0.000000000 0.000000000 -1.000000000
vn 0.445581558 -0.771769897 0.453683041
vn 0.542505732 -0.707007235 0.453683041
vn 0.495321800 -0.741301460 0.452911096
vn 0.000000000 0.000000000 -1.000000000
vn 0.000000000 0.000000000 -1.000000000
vn 0.000000000 0.000000000 -1.000000000
vn 0.608761429 -0.793353340 0.000000000
vn 0.707106781 -0.707106781 0.000000000
vn 0.707106781 -0.707106781 0.000000000
vn 0.608761429 -0.793353340 0.000000000
vn 0.707106781 -0.707106781 0.000000000
vn 0.608761429 -0.793353340 0.000000000
vn 0.000000000 0.000000000 -1.000000000
vn 0.000000000 0.000000000 -1.000000000
vn 0.000000000 0.000000000 -1.000000000
vn 0.000000000 0.000000000 -1.000000000
vn 0.000000000 0.000000000 -1.000000000
vn 0.000000000 0.000000000 -1.000000000
vn 0.542505732 -0.707007235 0.453683041
vn 0.630147482 -0.630147482 0.453683041
vn 0.587843510 -0.670307054 0.452911096
vn 0.000000000 0.000000000 -1.000000000
vn 0.000000000 0.000000000 -1.000000000
vn 0.000000000 0.000000000 -1.000000000
vn 0.707106781 -0.707106781 0.000000000
vn 0.793353340 -0.608761429 0.000000000
vn 0.793353340 -0.608761429 0.000000000
vn 0.707106781 -0.707106781 0.000000000
vn 0.793353340 -0.608761429 0.000000000
vn 0.707106781 -0.707106781 0.000000000
vn 0.000000000 0.000000000 -1.000000000
vn 0.000000000 0.000000000 -1.000000000
vn 0.000000000 0.000000000 -1.000000000
vn 0.000000000 0.000000000 -1.000000000
vn 0.000000000 0.000000000 -1.000000000
vn 0.000000000 0.000000000 -1.000000000
vn 0.630147482 -0.630147482 0.453683041
vn 0.707007235 -0.542505732 0.453683041
vn 0.670307054 -0.587843510 0.452911096
vn 0.000000000 0.000000000 -1.000000000
vn 0.000000000 0.000000000 -1.000000000
vn 0.000000000 0.000000000 -1.000000000
vn 0.793353340 -0.608761429 0.000000000
vn 0.866025404 -0.500000000 0.000000000
vn 0.866025404 -0.500000000 0.000000000
vn 0.793353340 -0.608761429 0.000000000
vn 0.866025404 -0.500000000 0.000000000
vn 0.793353340 -0.608761429 0.000000000
vn 0.000000000 0.000000000 -1.000000000
vn 0.000000000 0.000000000 -1.000000000
vn 0.000000000 0.000000000 -1.000000000
vn 0.000000000 0.000000000 -1.000000000
vn 0.000000000 0.000000000 -1.000000000
vn 0.000000000 0.000000000 -1.000000000
vn 0.707007235 -0.542505732 0.453683041
vn 0.771769897 -0.445581558 0.453683041
vn 0.741301460 -0.495321800 0.452911096
vn 0.000000000 0.000000000 -1.000000000
vn 0.000000000 0.000000000 -1.000000000
vn 0.000000000 0.000000000 -1.000000000
vn 0.866025404 -0.500000000 0.000000000
vn 0.923879533 -0.382683432 0.000000000
vn 0.923879533 -0.382683432 0.000000000
vn 0.866025404 -0.500000000 0.000000000
vn 0.923879533 -0.382683432 0.000000000
vn 0.866025404 -0.500000000 0.000000000
vn 0.000000000 0.000000000 -1.000000000
vn 0.000000000 0.000000000 -1.000000000
vn 0.000000000 0.000000000 -1.000000000
vn 0.000000000 0.000000000 -1.000000000
vn 0.000000000 0.000000000 -1.000000000
vn 0.000000000 0.000000000 -1.000000000
vn 0.771769897 -0.445581558 0.453683041
vn 0.823327363 -0.341033360 0.453683041
vn 0.799611991 -0.394324996 0.452911096
vn 0.000000000 0.000000000 -1.000000000
vn 0.000000000 0.000000000 -1.000000000
vn 0.000000000 0.000000000 -1.000000000
vn 0.923879533 -0.382683432 0.000000000
vn 0.965925826 -0.258819045 0.000000000
vn 0.965925826 -0.258819045 0.000000000
vn 0.923879533 -0.382683432 0.000000000
vn 0.965925826 -0.258819045 0.000000000
vn 0.923879533 -0.382683432 0.000000000
vn 0.000000000 0.000000000 -1.000000000
vn 0.000000000 0.000000000 -1.000000000
vn 0.000000000 0.000000000 -1.000000000
vn 0.000000000 0.000000000 -1.000000000
vn 0.000000000 0.000000000 -1.000000000
vn 0.000000000 0.000000000 -1.000000000
vn 0.823327363 -0.341033360 0.453683041
vn 0.860797469 -0.230649987 0.453683041
vn 0.844240940 -0.286581183 0.452911096
vn 0.000000000 0.000000000 -1.000000000
vn 0.000000000 0.000000000 -1.000000000
vn 0.000000000 0.000000000 -1.000000000
vn 0.965925826 -0.258819045 0.000000000
vn 0.991444861 -0.130526192 0.000000000
vn 0.991444861 -0.130526192 0.000000000
vn 0.965925826 -0.258819045 0.000000000
vn 0.991444861 -0.130526192 0.000000000
vn 0.965925826 -0.258819045 0.000000000
vn 0.000000000 0.000000000 -1.000000000
vn 0.000000000 0.000000000 -1.000000000
vn 0.000000000 0.000000000 -1.000000000
vn 0.000000000 0.000000000 -1.000000000
vn 0.000000000 0.000000000 -1.000000000
vn 0.000000000 0.000000000 -1.000000000
vn 0.860797469 -0.230649987 0.453683041
vn 0.883539092 -0.116320128 0.453683041
vn 0.874424692 -0.173933886 0.452911096
vn 0.000000000 0.000000000 -1.000000000
vn 0.000000000 0.000000000 -1.000000000
vn 0.000000000 0.000000000 -1.000000000
vn 0.991444861 -0.130526192 0.000000000
vn 1.000000000 0.000000000 0.000000000
vn 1.000000000 0.000000000 0.000000000
vn 0.991444861 -0.130526192 0.000000000
vn 1.000000000 0.000000000 0.000000000
vn 0.991444861 -0.130526192 0.000000000
vn 0.000000000 0.000000000 -1.000000000
vn 0.000000000 0.000000000 -1.000000000
vn 0.000000000 0.000000000 -1.000000000
vn 0.000000000 0.000000000 -1.000000000
vn 0.000000000 0.000000000 -1.000000000
vn 0.000000000 0.000000000 -1.000000000
vn 0.883539092 -0.116320128 0.453683041
vn 0.891163116 0.000000000 0.453683041
vn 0.889646796 -0.058310532 0.452911096
usemtl ArrowBlue
s 1
f 145//1 2//2 1//3
f 1//4 2//5 50//6
f 1//7 50//8 49//9
f 49//10 50//11 98//12
f 49//13 98//14 97//15
f 97//16 98//17 146//18
f 145//19 3//20 2//21
f 2//22 3//23 51//24
f 2//25 51//26 50//27
f 50//28 51//29 99//30
f 50//31 99//32 98//33
f 98//34 99//35 146//36
f 145//37 4//38 3//39
f 3//40 4//41 52//42
f 3//43 52//44 51//45
f 51//46 52//47 100//48
f 51//49 100//50 99//51
f 99//52 100//53 146//54
f 145//55 5//56 4//57
f 4//58 5//59 53//60
f 4//61 53//62 52//63
f 52//64 53//65 101//66
f 52//67 101//68 100//69
f 100//70 101//71 146//72
f 145//73 6//74 5//75
f 5//76 6//77 54//78
f 5//79 54//80 53//81
f 53//82 54//83 102//84
f 53//85 102//86 101//87
f 101//88 102//89 146//90
f 145//91 7//92 6//93
f 6//94 7//95 55//96
f 6//97 55//98 54//99
f 54//100 55//101 103//102
f 54//103 103//104 102//105
f 102//106 103//107 146//108
f 145//109 8//110 7//111
f 7//112 8//113 56//114
f 7//115 56//116 55//117
f 55//118 56//119 104//120
f 55//121 104//122 103//123
f 103//124 104//125 146//126
f 145//127 9//128 8//129
f 8//130 9//131 57//132
f 8//133 57//134 56//135
f 56//136 57//137 105//138
f 56//139 105//140 104//141
f 104//142 105//143 146//144
f 145//145 10//146 9//147
f 9//148 10//149 58//150
f 9//151 58//152 57//153
f 57//154 58//155 106//156
f 57//157 106//158 105//159
f 105//160 106//161 146//162
f 145//163 11//164 10//165
f 10//166 11//167 59//168
f 10//169 59//170 58//171
f 58//172 59//173 107//174
f 58//175 107//176 106//177
f 106//178 107//179 146//180
f 145//181 12//182 11//183
f 11//184 12//185 60//186
f 11//187 60//188 59//189
f 59//190 60//191 108//192
f 59//193 108//194 107//195
f 107//196 108//197 146//198
f 145//199 13//200 12//201
f 12//202 13//203 61//204
f 12//205 61//206 60//207
f 60//208 61//209 109//210
f 60//211 109//212 108//213
f 108//214 109//215 146//216
f 145//217 14//218 13//219
f 13//220 14//221 62//222
f 13//223 62//224 61//225
f 61//226 62//227 110//228
f 61//229 110//230 109//231
f 109//232 110//233 146//234
f 145//235 15//236 14//237
f 14//238 15//239 63//240
f 14//241 63//242 62//243
f 62//244 63//245 111//246
f 62//247 111//248 110//249
f 110//250 111//251 146//252
f 145//253 16//254 15//255
f 15//256 16//257 64//258
f 15//259 64//260 63//261
f 63//262 64//263 112//264
f 63//265 112//266 111//267
f 111//268 112//269 146//270
f 145//271 17//272 16//273
f 16//274 17//275 65//276
f 16//277 65//278 64//279
f 64//280 65//281 113//282
f 64//283 113//284 112//285
f 112//286 113//287 146//288
f 145//289 18//290 17//291
f 17//292 18//293 66//294
f 17//295 66//296 65//297
f 65//298 66//299 114//300
f 65//301 114//302 113//303
f 113//304 114//305 146//306
f 145//307 19//308 18//309
f 18//310 19//311 67//312
f 18//313 67//314 66//315
f 66//316 67//317 115//318
f 66//319 115//320 114//321
f 114//322 115//323 146//324
f 145//325 20//326 19//327
f 19//328 20//329 68//330
f 19//331 68//332 67//333
f 67//334 68//335 116//336
f 67//337 116//338 115//339
f 115//340 116//341 146//342
f 145//343 21//344 20//345
f 20//346 21//347 69//348
f 20//349 69//350 68//351
f 68//352 69//353 117//354
f 68//355 117//356 116//357
f 116//358 117//359 146//360
f 145//361 22//362 21//363
f 21//364 22//365 70//366
f 21//367 70//368 69//369
f 69//370 70//371 118//372
f 69//373 118//374 117//375
f 117//376 118//377 146//378
f 145//379 23//380 22//381
f 22//382 23//383 71//384
f 22//385 71//386 70//387
f 70//388 71//389 119//390
f 70//391 119//392 118//393
f 118//394 119//395 146//396
f 145//397 24//398 23//399
f 23//400 24//401 72//402
f 23//403 72//404 71//405
f 71//406 72//407 120//408
f 71//409 120//410 119//411
f 119//412 120//413 146//414
f 145//415 25//416 24//417
f 24//418 25//419 73//420
f 24//421 73//422 72//423
f 72//424 73//425 121//426
f 72//427 121//428 120//429
f 120//430 121//431 146//432
f 145//433 26//434 25//435
f 25//436 26//437 74//438
f 25//439 74//440 73//441
f 73//442 74//443 122//444
f 73//445 122//446 121//447
f 121//448 122//449 146//450
f 145//451 27//452 26//453
f 26//454 27//455 75//456
f 26//457 75//458 74//459
f 74//460 75//461 123//462
f 74//463 123//464 122//465
f 122//466 123//467 146//468
f 145//469 28//470 27//471
f 27//472 28//473 76//474
f 27//475 76//476 75//477
f 75//478 76//479 124//480
f 75//481 124//482 123//483
f 123//484 124//485 146//486
f 145//487 29//488 28//489
f 28//490 29//491 77//492
f 28//493 77//494 76//495
f 76//496 77//497 125//498
f 76//499 125//500 124//501
f 124//502 125//503 146//504
f 145//505 30//506 29//507
f 29//508 30//509 78//510
f 29//511 78//512 77//513
f 77//514 78//515 126//516
f 77//517 126//518 125//519
f 125//520 126//521 146//522
f 145//523 31//524 30//525
f 30//526 31//527 79//528
f 30//529 79//530 78//531
f 78//532 79//533 127//534
f 78//535 127//536 126//537
f 126//538 127//539 146//540
f 145//541 32//542 31//543
f 31//544 32//545 80//546
f 31//547 80//548 79//549
f 79//550 80//551 128//552
f 79//553 128//554 127//555
f 127//556 128//557 146//558
f 145//559 33//560 32//561
f 32//562 33//563 81//564
f 32//565 81//566 80//567
f 80//568 81//569 129//570
f 80//571 129//572 128//573
f 128//574 129//575 146//576
f 145//577 34//578 33//579
f 33//580 34//581 82//582
f 33//583 82//584 81//585
f 81//586 82//587 130//588
f 81//589 130//590 129//591
f 129//592 130//593 146//594
f 145//595 35//596 34//597
f 34//598 35//599 83//600
f 34//601 83//602 82//603
f 82//604 83//605 131//606
f 82//607 131//608 130//609
f 130//610 131//611 146//612
f 145//613 36//614 35//615
f 35//616 36//617 84//618
f 35//619 84//620 83//621
f 83//622 84//623 132//624
f 83//625 132//626 131//627
f 131//628 132//629 146//630
f 145//631 37//632 36//633
f 36//634 37//635 85//636
f 36//637 85//638 84//639
f 84//640 85//641 133//642
f 84//643 133//644 132//645
f 132//646 133//647 146//648
f 145//649 38//650 37//651
f 37//652 38//653 86//654
f 37//655 86//656 85//657
f 85//658 86//659 134//660
f 85//661 134//662 133//663
f 133//664 134//665 146//666
f 145//667 39//668 38//669
f 38//670 39//671 87//672
f 38//673 87//674 86//675
f 86//676 87//677 135//678
f 86//679 135//680 134//681
f 134//682 135//683 146//684
f 145//685 40//686 39//687
f 39//688 40//689 88//690
f 39//691 88//692 87//693
f 87//694 88//695 136//696
f 87//697 136//698 135//699
f 135//700 136//701 146//702
f 145//703 41//704 40//705
f 40//706 41//707 89//708
f 40//709 89//710 88//711
f 88//712 89//713 137//714
f 88//715 137//716 136//717
f 136//718 137//719 146//720
f 145//721 42//722 41//723
f 41//724 42//725 90//726
f 41//727 90//728 89//729
f 89//730 90//731 138//732
f 89//733 138//734 137//735
f 137//736 138//737 146//738
f 145//739 43//740 42//741
f 42//742 43//743 91//744
f 42//745 91//746 90//747
f 90//748 91//749 139//750
f 90//751 139//752 138//753
f 138//754 139//755 146//756
f 145//757 44//758 43//759
f 43//760 44//761 92//762
f 43//763 92//764 91//765
f 91//766 92//767 140//768
f 91//769 140//770 139//771
f 139//772 140//773 146//774
f 145//775 45//776 44//777
f 44//778 45//779 93//780
f 44//781 93//782 92//783
f 92//784 93//785 141//786
f 92//787 141//788 140//789
f 140//790 141//791 146//792
f 145//793 46//794 45//795
f 45//796 46//797 94//798
f 45//799 94//800 93//801
f 93//802 94//803 142//804
f 93//805 142//806 141//807
f 141//808 142//809 146//810
f 145//811 47//812 46//813
f 46//814 47//815 95//816
f 46//817 95//818 94//819
f 94//820 95//821 143//822
f 94//823 143//824 142//825
f 142//826 143//827 146//828
f 145//829 48//830 47//831
f 47//832 48//833 96//834
f 47//835 96//836 95//837
f 95//838 96//839 144//840
f 95//841 144//842 143//843
f 143//844 144//845 146//846
f 145//847 1//848 48//849
f 48//850 1//851 49//852
f 48//853 49//854 96//855
f 96//856 49//857 97//858
f 96//859 97//860 144//861
f 144//862 97//863 146//864
