# Blender 4.4.1
# www.blender.org
mtllib player.mtl
o Untitled.001
v -0.600000 -0.600000 0.600000
v -0.600000 -0.600000 -0.600000
v -0.600000 0.600000 0.600000
v -0.600000 0.600000 -0.600000
v 0.600000 -0.600000 0.600000
v 0.600000 -0.600000 -0.600000
v 0.600000 0.600000 0.600000
v 0.600000 0.600000 -0.600000
v -0.600000 -0.600000 0.600000
v -0.600000 0.600000 0.600000
v -0.500000 -0.200000 0.600000
v -0.500000 -0.100000 0.600000
v -0.400000 -0.200000 0.600000
v -0.400000 -0.100000 0.600000
v -0.300000 -0.100000 0.600000
v -0.300000 0.200000 0.600000
v -0.200000 -0.100000 0.600000
v -0.200000 0.200000 0.600000
v 0.200000 -0.100000 0.600000
v 0.200000 0.200000 0.600000
v 0.300000 -0.100000 0.600000
v 0.300000 0.200000 0.600000
v 0.400000 -0.200000 0.600000
v 0.400000 -0.100000 0.600000
v 0.500000 -0.200000 0.600000
v 0.500000 -0.100000 0.600000
v 0.600000 -0.600000 0.600000
v 0.600000 0.600000 0.600000
v -0.600000 -0.600000 -0.600000
v -0.600000 0.600000 -0.600000
v 0.600000 -0.600000 -0.600000
v 0.600000 0.600000 -0.600000
v -0.600000 -0.600000 0.600000
v 0.600000 -0.600000 0.600000
v -0.600000 -0.600000 -0.600000
v 0.600000 -0.600000 -0.600000
v -0.600000 0.600000 0.600000
v 0.600000 0.600000 0.600000
v -0.600000 0.600000 -0.600000
v 0.600000 0.600000 -0.600000
vn -1.0000 -0.0000 -0.0000
vn 1.0000 -0.0000 -0.0000
vn -0.0000 -0.0000 1.0000
vn -0.0000 -0.0000 -1.0000
vn -0.0000 -1.0000 -0.0000
vn -0.0000 1.0000 -0.0000
vt 0.958984 0.500000
vt 0.029297 0.500000
vt 0.994141 0.500000
s 1
usemtl palette.001
f 3/1/1 2/1/1 1/1/1
f 4/1/1 2/1/1 3/1/1
f 5/1/2 6/1/2 7/1/2
f 7/1/2 6/1/2 8/1/2
f 11/1/3 10/1/3 9/1/3
f 12/1/3 10/1/3 11/1/3
f 13/1/3 11/1/3 9/1/3
f 13/2/3 12/2/3 11/2/3
f 14/1/3 10/1/3 12/1/3
f 14/2/3 12/2/3 13/2/3
f 15/1/3 14/1/3 13/1/3
f 15/1/3 10/1/3 14/1/3
f 16/1/3 10/1/3 15/1/3
f 17/1/3 15/1/3 13/1/3
f 17/3/3 16/3/3 15/3/3
f 18/1/3 10/1/3 16/1/3
f 18/3/3 16/3/3 17/3/3
f 19/1/3 17/1/3 13/1/3
f 19/1/3 18/1/3 17/1/3
f 20/1/3 10/1/3 18/1/3
f 20/1/3 18/1/3 19/1/3
f 21/1/3 19/1/3 13/1/3
f 21/3/3 20/3/3 19/3/3
f 22/1/3 10/1/3 20/1/3
f 22/3/3 20/3/3 21/3/3
f 23/1/3 13/1/3 9/1/3
f 23/1/3 21/1/3 13/1/3
f 23/1/3 22/1/3 21/1/3
f 24/1/3 22/1/3 23/1/3
f 25/1/3 23/1/3 9/1/3
f 25/2/3 24/2/3 23/2/3
f 26/1/3 22/1/3 24/1/3
f 26/2/3 24/2/3 25/2/3
f 27/1/3 25/1/3 9/1/3
f 27/1/3 26/1/3 25/1/3
f 28/1/3 10/1/3 22/1/3
f 28/1/3 26/1/3 27/1/3
f 28/1/3 22/1/3 26/1/3
f 29/1/4 30/1/4 31/1/4
f 31/1/4 30/1/4 32/1/4
f 35/1/5 34/1/5 33/1/5
f 36/1/5 34/1/5 35/1/5
f 37/1/6 38/1/6 39/1/6
f 39/1/6 38/1/6 40/1/6
